<svg width="29" height="28" viewBox="0 0 29 28" fill="none" xmlns="http://www.w3.org/2000/svg">
<path d="M14.8522 18.6666C14.5767 18.6672 14.3097 18.5722 14.0976 18.3983L7.02357 12.565C6.7828 12.367 6.63139 12.0824 6.60265 11.7739C6.5739 11.4654 6.67018 11.1582 6.8703 10.92C7.07043 10.6817 7.358 10.5319 7.66976 10.5035C7.98152 10.475 8.29193 10.5703 8.5327 10.7683L14.8522 15.995L21.1716 10.955C21.2922 10.8581 21.431 10.7857 21.58 10.742C21.7289 10.6984 21.8851 10.6843 22.0396 10.7005C22.1941 10.7168 22.3438 10.7631 22.4801 10.8368C22.6165 10.9105 22.7367 11.0101 22.834 11.13C22.942 11.2499 23.0238 11.3907 23.0742 11.5434C23.1247 11.696 23.1427 11.8574 23.1272 12.0173C23.1117 12.1772 23.063 12.3322 22.9842 12.4726C22.9053 12.6131 22.798 12.7358 22.669 12.8333L15.5949 18.4683C15.3767 18.6147 15.1152 18.6846 14.8522 18.6666Z" fill="white"/>
</svg>
